DataType=double
version=3
OpenSimVersion=4.5-2024-01-10-34fd6af
endheader
time	ground_force_1_vx	ground_force_1_vy	ground_force_1_vz	ground_force_1_px	ground_force_1_py	ground_force_1_pz	ground_moment_1_mx	ground_moment_1_my	ground_moment_1_mz	ground_force_2_vx	ground_force_2_vy	ground_force_2_vz	ground_force_2_px	ground_force_2_py	ground_force_2_pz	ground_moment_2_mx	ground_moment_2_my	ground_moment_2_mz
15	6.27e-64	9.91e-63	-1.65e-64	0.8195502510977265	0	0.2404965338681078	0	1.69e-64	0	-24.80097292	719.0878603	-57.58613727	1.071289148734404	0	0.5758770829500734	0	0.4425252613180604	0
15.01	3.07e-60	4.52e-59	-7.610000000000001e-61	0.8195502510977265	0	0.2404965338681078	0	8.02e-61	0	-18.34536088	731.3389547	-57.00489013	1.059723000891069	0	0.5751033478638119	0	0.6283631732122323	0
15.02	1.35e-56	2.06e-55	-3.4e-57	0.8195502510977265	0	0.2404965338681078	0	3.48e-57	0	-11.37318479	744.6596071	-56.5821891	1.048141942276809	0	0.5743302092265465	0	0.7890880169205978	0
15.03	6.46e-53	9.42e-52	-1.57e-53	0.8195502510977265	0	0.2404965338681078	0	1.7e-53	0	-4.235875111	758.6973038	-56.38916035	1.03683394262285	0	0.5736240862230977	0	0.8997581857060979	0
15.04	2.86e-49	4.3e-48	-6.88e-50	0.8195502510977265	0	0.2404965338681078	0	7.75e-50	0	2.682277543	772.7814943	-56.49245855	1.026068292117953	0	0.5730386962457201	0	0.9423761524891585	0
15.05	1.29e-45	1.96e-44	-3.28e-46	0.8195502510977265	0	0.2404965338681078	0	3.34e-46	0	8.973756785000001	786.0179278000001	-56.96934451	1.016093703836914	0	0.5726313434258031	0	0.8995754248883188	0
15.06	5.830000000000001e-42	8.96e-41	-1.49e-42	0.8195502510977265	0	0.2404965338681078	0	1.68e-42	0	14.34893574	797.3165432	-57.81083616	1.007045817349429	0	0.5724308972787997	0	0.7772178959619396	0
15.07	2.87e-38	4.09e-37	-6.89e-39	0.8195502510977265	0	0.2404965338681078	0	7.350000000000001e-39	0	18.60864332	805.6409432	-59.00105947	0.9989985715701698	0	0.572455858974839	0	0.5816835597649597	0
15.08	1.21e-34	1.87e-33	-3.05e-35	0.8195502510977265	0	0.2404965338681078	0	3.48e-35	0	21.69757357	810.1046391	-60.4769212	0.991925847287541	0	0.5726964230224849	0	0.3274704945881037	0
15.09	5.7e-31	8.54e-30	-1.43e-31	0.8195502510977265	0	0.2404965338681078	0	1.6e-31	0	23.68484374	810.156087	-62.11625916	0.9857501402922348	0	0.5731269727791135	0	0.03900080653697202	0
15.1	2.63e-27	3.89e-26	-6.37e-28	0.8195502510977265	0	0.2404965338681078	0	6.94e-28	0	24.69466219	805.591314	-63.8121032	0.9803562904203722	0	0.5737101152155455	0	-0.2632529226595164	0
15.11	1.16e-23	1.78e-22	-2.95e-24	0.8195502510977265	0	0.2404965338681078	0	3.46e-24	0	24.96330535	796.5346313	-65.41644082000001	0.9755894946458396	0	0.5743986251822786	0	-0.5448768129298909	0
15.12	5.29e-20	8.11e-19	-1.34e-20	0.8195502510977265	0	0.2404965338681078	0	1.49e-20	0	24.73919371	783.4120019	-66.81632252999999	0.9713012124785304	0	0.575142315997875	0	-0.7885475449885444	0
15.13	2.46e-16	3.71e-15	-6.15e-17	0.8195502510977265	0	0.2404965338681078	0	5.9e-17	0	24.34389517	766.8563057	-67.91880277999999	0.9673058449805775	0	0.5758844463830248	0	-0.973918309102487	0
15.14	18.35547408	9.066926687	-1.947815782	0.9308387937134677	0	0.4269348507703166	0	1.39153233091996	0	24.05527343	747.6109155	-68.62963127	0.9634599122440028	0	0.5765716796999788	0	-1.093067491741852	0
15.15	25.06849551	29.02385504	-4.597972412	1.128995350882789	0	0.3836097080923958	0	1.903585968696282	0	24.11595917	726.3657451	-68.88828895	0.9596258448560879	0	0.5771560867932768	0	-1.138155826723185	0
15.16	31.49422821	57.81232574	-7.399389439	1.173345428132927	0	0.3732860049322069	0	2.001508969898671	0	24.70506996	703.6397813999999	-68.60295377	0.9556914041047426	0	0.5775964699521254	0	-1.104883602475505	0
15.17	35.94258041	95.89387588	-9.837823115999999	1.190972275947057	0	0.3687137198684532	0	2.010293160384386	0	25.88065592	679.7252417	-67.68452686000001	0.9515931041114145	0	0.5778669565416207	0	-0.9972588246263214	0
15.18	36.40461899	142.5979901	-11.13645928	1.199942201096186	0	0.3660045472520916	0	2.020634480966609	0	27.61614073	654.6293167	-66.06111435	0.947315493989719	0	0.5779488064841415	0	-0.8185949013538618	0
15.19	31.73160404	196.516434	-10.60651872	1.205462969064103	0	0.3639381853179809	0	2.038730206752483	0	29.74195483	628.1647182	-63.64759068	0.9429260928614001	0	0.5778425770606479	0	-0.5771715165924567	0
15.2	22.50125011	255.5856203	-7.63602371	1.209238462128901	0	0.3620061974146997	0	2.052605520814653	0	32.05207707	599.9666351	-60.42802445	0.9384944968094574	0	0.577555823735053	0	-0.2763641623920066	0
15.21	10.46671872	316.5479296	-1.753115245	1.211509237393368	0	0.3600605005565824	0	2.057037570334651	0	34.29353552	569.5625058000001	-56.45345349	0.9341266774798423	0	0.5771110405459619	0	0.06775607263382799	0
15.22	-2.63964745	375.2377019	7.018487293	1.212134285042318	0	0.3582232634219858	0	2.096884435138527	0	36.23201775	536.4070655	-51.85693003	0.9298705871814579	0	0.5765334949978811	0	0.4366313479767072	0
15.23	-15.30248907	428.8801351	17.66346005	1.211047477148661	0	0.3565662116544035	0	2.18269498771971	0	37.64635344	500.0701955	-46.82103031	0.9257855277214961	0	0.5758573417339088	0	0.8096180837685045	0
15.24	-26.514928	476.8428195	28.65464681	1.208458957523157	0	0.3551377782247296	0	2.262502583900922	0	38.30432961	460.4251295	-41.52340502	0.9219075670437189	0	0.5751257200923041	0	1.162547878239939	0
